<svg width="21" height="20" viewBox="0 0 21 20" fill="none" xmlns="http://www.w3.org/2000/svg">
<path d="M17.375 4.37695L3.625 4.37696" stroke="black" stroke-opacity="0.56" stroke-width="1.5" stroke-linecap="round" stroke-linejoin="round"/>
<path d="M8.625 8.12695V13.127" stroke="black" stroke-opacity="0.56" stroke-width="1.5" stroke-linecap="round" stroke-linejoin="round"/>
<path d="M12.375 8.12695V13.127" stroke="black" stroke-opacity="0.56" stroke-width="1.5" stroke-linecap="round" stroke-linejoin="round"/>
<path d="M16.125 4.37696V16.252C16.125 16.4177 16.0592 16.5767 15.9419 16.6939C15.8247 16.8111 15.6658 16.877 15.5 16.877H5.5C5.33424 16.877 5.17527 16.8111 5.05806 16.6939C4.94085 16.5767 4.875 16.4177 4.875 16.252V4.37695" stroke="black" stroke-opacity="0.56" stroke-width="1.5" stroke-linecap="round" stroke-linejoin="round"/>
<path d="M13.625 4.37695V3.12695C13.625 2.79543 13.4933 2.47749 13.2589 2.24307C13.0245 2.00865 12.7065 1.87695 12.375 1.87695H8.625C8.29348 1.87695 7.97554 2.00865 7.74112 2.24307C7.5067 2.47749 7.375 2.79543 7.375 3.12695V4.37695" stroke="black" stroke-opacity="0.56" stroke-width="1.5" stroke-linecap="round" stroke-linejoin="round"/>
</svg>
