<svg width="21" height="20" viewBox="0 0 21 20" fill="none" xmlns="http://www.w3.org/2000/svg">
<path d="M10.0581 12.3173C10.1753 12.4345 10.3343 12.5003 10.5 12.5003C10.6658 12.5003 10.8247 12.4345 10.9419 12.3173L14.2232 9.03606C14.2812 8.97802 14.3273 8.90912 14.3587 8.83329C14.3901 8.75746 14.4063 8.67619 14.4063 8.59411C14.4063 8.51204 14.3901 8.43076 14.3587 8.35493C14.3273 8.2791 14.2813 8.21019 14.2232 8.15215C14.1652 8.09411 14.0963 8.04807 14.0205 8.01666C13.9446 7.98525 13.8634 7.96907 13.7813 7.96907C13.6992 7.96907 13.6179 7.98523 13.5421 8.01664C13.4663 8.04804 13.3974 8.09408 13.3393 8.15211L11.125 10.3665V3.12305C11.125 2.95729 11.0592 2.79832 10.942 2.68111C10.8247 2.5639 10.6658 2.49805 10.5 2.49805C10.3343 2.49805 10.1753 2.5639 10.0581 2.68111C9.94086 2.79832 9.87501 2.95729 9.87501 3.12305V10.3665L7.6607 8.15211C7.60266 8.09408 7.53375 8.04804 7.45792 8.01664C7.38209 7.98523 7.30082 7.96907 7.21874 7.96907C7.05297 7.96908 6.894 8.03493 6.77679 8.15215C6.65959 8.26937 6.59374 8.42835 6.59375 8.59411C6.59376 8.75988 6.65961 8.91885 6.77683 9.03606L10.0581 12.3173Z" fill="black" fill-opacity="0.56"/>
<path d="M18 10C17.8342 10 17.6753 10.0659 17.5581 10.1831C17.4409 10.3003 17.375 10.4592 17.375 10.625V16.25H3.625V10.625C3.625 10.4592 3.55915 10.3003 3.44194 10.1831C3.32473 10.0658 3.16576 10 3 10C2.83424 10 2.67527 10.0658 2.55806 10.1831C2.44085 10.3003 2.375 10.4592 2.375 10.625V16.25C2.37538 16.5814 2.5072 16.8991 2.74154 17.1335C2.97587 17.3678 3.2936 17.4996 3.625 17.5H17.375C17.7064 17.4996 18.0241 17.3678 18.2585 17.1335C18.4928 16.8991 18.6246 16.5814 18.625 16.25V10.625C18.625 10.4592 18.5591 10.3003 18.4419 10.1831C18.3247 10.0659 18.1658 10 18 10V10Z" fill="black" fill-opacity="0.56"/>
</svg>
