<svg width="21" height="20" viewBox="0 0 21 20" fill="none" xmlns="http://www.w3.org/2000/svg">
<path d="M7.6607 6.84623L9.87501 4.63188V11.8753C9.87501 12.0411 9.94086 12.2 10.0581 12.3172C10.1753 12.4344 10.3343 12.5003 10.5 12.5003C10.6658 12.5003 10.8247 12.4344 10.942 12.3172C11.0592 12.2 11.125 12.0411 11.125 11.8753V4.63188L13.3393 6.84623C13.3974 6.90426 13.4663 6.9503 13.5421 6.98171C13.6179 7.01311 13.6992 7.02928 13.7813 7.02927C13.8634 7.02927 13.9446 7.0131 14.0205 6.98169C14.0963 6.95027 14.1652 6.90423 14.2232 6.84619C14.2813 6.78815 14.3273 6.71925 14.3587 6.64342C14.3901 6.56758 14.4063 6.48631 14.4063 6.40423C14.4063 6.32215 14.3901 6.24088 14.3587 6.16505C14.3273 6.08922 14.2812 6.02032 14.2232 5.96229L10.9419 2.68104C10.8247 2.56387 10.6658 2.49805 10.5 2.49805C10.3343 2.49805 10.1753 2.56387 10.0581 2.68104L6.77683 5.96229C6.71879 6.02032 6.67275 6.08922 6.64134 6.16505C6.60992 6.24088 6.59375 6.32215 6.59375 6.40423C6.59375 6.48631 6.60991 6.56758 6.64132 6.64342C6.67272 6.71925 6.71876 6.78815 6.77679 6.84619C6.83483 6.90423 6.90373 6.95027 6.97956 6.98169C7.05539 7.0131 7.13666 7.02927 7.21874 7.02927C7.30082 7.02928 7.38209 7.01311 7.45792 6.98171C7.53375 6.9503 7.60266 6.90426 7.6607 6.84623V6.84623Z" fill="black" fill-opacity="0.56"/>
<path d="M18 10C17.8342 10 17.6753 10.0659 17.5581 10.1831C17.4409 10.3003 17.375 10.4592 17.375 10.625V16.25H3.625V10.625C3.625 10.4592 3.55915 10.3003 3.44194 10.1831C3.32473 10.0658 3.16576 10 3 10C2.83424 10 2.67527 10.0658 2.55806 10.1831C2.44085 10.3003 2.375 10.4592 2.375 10.625V16.25C2.37538 16.5814 2.5072 16.8991 2.74154 17.1335C2.97587 17.3678 3.2936 17.4996 3.625 17.5H17.375C17.7064 17.4996 18.0241 17.3678 18.2585 17.1335C18.4928 16.8991 18.6246 16.5814 18.625 16.25V10.625C18.625 10.4592 18.5591 10.3003 18.4419 10.1831C18.3247 10.0659 18.1658 10 18 10V10Z" fill="black" fill-opacity="0.56"/>
</svg>
